<svg width="138" height="89" viewBox="0 0 138 89" fill="none" xmlns="http://www.w3.org/2000/svg">
<ellipse cx="54.8033" cy="79.536" rx="54.8033" ry="9.46402" fill="#FFF4F0"/>
<path d="M137.325 74.8383C137.291 74.7559 137.292 74.6897 137.242 74.6122C137.203 74.5528 137.155 74.4964 137.111 74.4412C137.001 74.3054 136.891 74.1723 136.789 74.0301C136.605 73.771 136.439 73.5032 136.238 73.2558C135.868 72.8004 135.475 72.3806 135.008 72.022C134.34 71.5099 133.581 71.1294 132.787 70.8518C132.456 70.6986 132.119 70.5579 131.773 70.4422C131.115 70.2224 130.442 70.0753 129.758 69.9944C129.879 69.955 130.001 69.921 130.127 69.8991C130.3 69.8688 130.264 69.6286 130.106 69.6059C129.568 69.5288 129.034 69.4471 128.494 69.3926C128.509 69.2591 128.358 69.16 128.233 69.1736C127.396 69.2652 126.555 69.3241 125.715 69.3926C122.676 69.4921 119.639 69.6577 116.607 69.8972C115.003 70.0239 113.402 70.1907 111.801 70.3544C111.012 70.435 110.223 70.5409 109.431 70.5787C108.64 70.6166 107.844 70.6026 107.055 70.5496C106.185 70.4914 105.332 70.3159 104.495 70.0764C104.075 69.9565 103.66 69.8215 103.247 69.6831C103.068 69.6233 102.889 69.5617 102.711 69.4997C102.711 69.4989 102.711 69.4985 102.711 69.4978C102.88 69.0386 103.043 68.5726 103.151 68.0949C103.255 67.6335 103.351 67.1686 103.401 66.6977C103.414 66.5831 103.424 66.4682 103.431 66.3528C103.444 66.3997 103.457 66.447 103.467 66.495C103.51 66.7038 103.799 66.6667 103.827 66.4693C104.045 64.9057 103.629 63.3289 103.301 61.8118C102.96 60.2372 102.707 58.6358 102.456 57.045C102.33 56.2465 102.208 55.4473 102.096 54.6466C101.988 53.8709 101.872 53.0997 101.688 52.3379C101.364 51.0024 100.875 49.7119 100.313 48.46C100.003 47.7705 99.6372 47.112 99.2206 46.4811C99.0113 46.1637 98.7896 45.8532 98.5482 45.5593C98.7135 45.6308 98.9027 45.4232 98.8161 45.2564C98.6243 44.8868 98.3893 44.5355 98.166 44.1845C97.942 43.8327 97.712 43.484 97.4676 43.1459C96.9897 42.484 96.4645 41.8591 95.8761 41.2922C95.2722 40.7105 94.6187 40.1817 93.9524 39.673C93.3077 39.1805 92.661 38.6885 92.0019 38.2149C91.6296 37.9475 91.2466 37.685 90.8372 37.477C90.5463 37.3287 90.1997 37.1434 89.8565 37.1025C89.822 36.7659 89.7721 36.4312 89.7415 36.0942C89.7059 35.7027 89.7494 35.3313 89.7925 34.9432C89.8364 34.5491 89.78 34.1667 89.6646 33.7897C89.6075 33.6024 89.5258 33.4254 89.4664 33.2389C89.4051 33.0464 89.3824 32.8426 89.3642 32.6417C89.3457 32.436 89.343 32.2317 89.3521 32.0252C89.3612 31.8089 89.4062 31.6012 89.4278 31.3864C89.4664 31.0017 89.4414 30.6262 89.5863 30.2619C89.6431 30.1193 89.6964 29.9635 89.6828 29.8077C89.6696 29.6549 89.5958 29.5323 89.5235 29.4011C89.4512 29.2698 89.3896 29.1798 89.4528 29.0334C89.5375 28.836 89.6249 28.6681 89.6597 28.4521C89.7165 28.1034 89.6847 27.7183 89.5349 27.3942C89.623 27.2762 89.7112 27.1578 89.8035 27.0421C89.942 26.8681 90.0271 26.6801 90.0286 26.4547C90.0305 26.2251 90.0003 25.9917 89.9825 25.7633C89.9636 25.5201 89.945 25.2769 89.9261 25.0337C89.9182 24.9312 89.9125 24.7931 89.8803 24.6706C90.0476 24.4565 90.1876 24.222 90.2859 23.9678C90.4823 23.4602 90.5841 22.8997 90.701 22.3694C90.7854 21.9859 90.8963 21.4628 90.7722 21.0494C90.7725 21.0483 90.7733 21.0475 90.7737 21.0464C91.2572 19.9121 91.5459 18.6764 91.502 17.4385C91.4805 16.8284 91.3889 16.2202 91.1959 15.64C91.0238 15.123 90.7877 14.3983 90.121 14.4164C89.8024 14.4251 89.5152 14.5719 89.234 14.7073C88.9416 14.848 88.6498 14.9902 88.3604 15.1366C87.7728 15.4339 87.1938 15.7501 86.6429 16.1117C86.0772 16.4827 85.5305 16.8946 85.0568 17.3799C84.8335 17.6083 84.6088 17.8564 84.4128 18.1238C84.3666 18.0716 84.3163 18.0281 84.2584 18.0058C83.8796 17.861 83.5962 18.3277 83.3904 18.5558C83.1327 18.841 82.6529 18.7426 82.3109 18.7218C82.1187 18.7101 81.9298 18.6919 81.7452 18.6341C81.5878 18.5849 81.4255 18.5062 81.2613 18.4733C81.013 18.1666 80.5813 17.9601 80.1893 18.0894C80.1053 18.117 80.1855 18.111 80.1261 18.0781C80.0788 18.0516 80.0478 18.0206 79.9944 17.9998C79.8938 17.9612 79.7867 17.965 79.6849 17.9933C79.5699 18.0247 79.4764 18.0856 79.3788 18.1514C79.3364 18.1802 79.2941 18.2089 79.2471 18.2305C79.2297 18.2384 79.1957 18.2452 79.1858 18.2558C79.1643 18.2146 79.1287 18.1318 79.1215 18.1212C79.0913 18.0792 79.0602 18.0425 79.0178 18.0111C78.9221 17.9404 78.8048 17.912 78.6871 17.929C78.5729 17.9457 78.4813 18.0073 78.3765 18.0486C78.3197 18.0713 78.2679 18.0743 78.2149 18.075C78.1218 17.9816 78.031 17.8855 77.9501 17.7815C77.8536 17.6575 77.7703 17.5262 77.6958 17.3882C77.6091 17.2278 77.5233 17.072 77.3768 16.9574C77.2546 16.8617 77.1044 16.8186 76.9723 16.7403C76.8959 16.6953 76.8437 16.6291 76.7968 16.5583C76.5523 15.9668 76.197 15.4222 75.8414 14.8926C75.3684 14.1891 74.8591 13.5106 74.3104 12.8642C74.0437 12.5499 73.7682 12.2428 73.4841 11.944C73.2275 11.6739 72.96 11.3933 72.6308 11.211C72.2725 11.0124 71.8703 10.9432 71.4798 11.0888C71.4 11.1187 71.3239 11.1591 71.2554 11.2076C71.1798 11.2079 71.101 11.2378 71.0549 11.2957C70.9361 11.4443 70.8994 11.6316 70.8441 11.8101C70.7851 12.0007 70.7291 12.1921 70.6723 12.3831L70.3515 13.4667C70.1403 14.1793 69.8532 14.9138 69.8006 15.6604C69.7748 16.0228 69.8225 16.3851 69.8569 16.7452C69.8929 17.1204 69.8846 17.4922 69.8497 17.867C69.7816 18.6008 69.6674 19.3213 69.7502 20.0592C69.7574 20.1224 69.7676 20.1848 69.7771 20.2472C69.7434 20.3357 69.7298 20.4431 69.7188 20.5036C69.6814 20.7098 69.667 20.9223 69.6405 21.1304C69.5902 21.5245 69.5206 21.9197 69.3083 22.2635C69.2031 22.4337 69.0495 22.571 68.9522 22.7454C68.8304 22.9636 68.8202 23.1962 68.9481 23.4149C68.9564 23.4292 68.9643 23.444 68.9727 23.458C68.9594 23.4981 68.9462 23.5378 68.936 23.579C68.911 23.6815 68.897 23.7859 68.8701 23.888C68.816 24.093 68.7513 24.2969 68.6843 24.4981C68.5485 24.9039 68.3953 25.303 68.2749 25.7137C68.0309 26.5451 67.8659 27.4021 67.7827 28.2645C67.6162 29.9896 67.8122 31.7071 68.2435 33.3808C68.3196 33.6754 68.4025 33.9682 68.4902 34.2594C68.4028 34.7519 68.3022 35.2473 68.1656 35.7284C68.0222 36.2338 67.8394 36.7273 67.6733 37.2258C67.3419 38.221 67.0422 39.218 66.9113 40.2626C66.7796 41.3145 66.8193 42.369 67.0017 43.4118C67.0944 43.9417 67.2098 44.4678 67.2949 44.9992C67.377 45.5128 67.4928 46.0249 67.5492 46.5427C67.682 47.7591 67.6601 48.988 67.8027 50.2025C67.8107 50.2705 67.8761 50.3417 67.9412 50.3598C68.1505 50.4177 68.3578 50.4381 68.5625 50.4888C68.3514 50.797 68.2394 51.1677 68.1429 51.5251C68.0029 52.0425 68.1236 52.5585 68.2352 53.0679C68.3472 53.5797 68.4452 54.1099 68.6329 54.6005C68.7555 54.9205 69.0063 55.1988 69.3283 55.2741C69.2012 55.6009 69.1339 55.9451 69.138 56.3014C69.1399 56.4421 69.2432 56.5238 69.3794 56.5105C69.5966 56.4894 69.813 56.4648 70.0299 56.441C69.9655 56.5699 69.9054 56.7 69.8592 56.8441C69.7843 57.079 69.7306 57.3207 69.6942 57.5643C69.6609 57.7882 69.6458 58.0151 69.6598 58.2383C69.6439 58.4206 69.645 58.6018 69.6568 58.7901C69.6901 59.3352 69.7517 59.8802 69.8157 60.4222C69.9459 61.5221 70.0953 62.6201 70.2262 63.7203C70.2372 63.8122 70.339 63.8833 70.4328 63.8815C70.4094 64.2181 70.4052 64.5566 70.3855 64.8936C70.3575 65.3766 70.3091 65.8581 70.258 66.3392C70.1562 67.2957 70.0242 68.2568 70.034 69.2205C70.0389 69.7186 70.0749 70.2175 70.1472 70.7104C70.216 71.1786 70.3799 71.6363 70.4207 72.1075C70.4487 72.4268 70.4116 72.7256 70.3443 73.0225C70.286 73.1692 70.2296 73.3163 70.1668 73.4612C69.9742 73.9041 69.7567 74.3319 69.5213 74.7532C69.2901 75.167 69.0608 75.5808 68.8213 75.99C68.7608 76.0933 68.7006 76.1969 68.6405 76.3006C68.1894 76.1837 67.6135 76.4068 67.2556 76.6274C66.705 76.9666 66.2888 77.467 65.9343 78.0003C65.5949 78.5102 65.2199 79.062 65.1019 79.6725C64.9861 80.2697 65.2256 80.8408 65.7742 81.1252C66.3244 81.4108 66.976 81.4407 67.5814 81.505C68.3192 81.5833 69.0589 81.6426 69.7998 81.6835C70.5331 81.724 71.288 81.7871 72.0216 81.7399C72.3399 81.7194 72.6479 81.6536 72.9157 81.4743C73.1625 81.3094 73.3721 81.0712 73.5707 80.8514C74.038 80.3344 74.472 79.7738 74.598 79.0707C74.654 78.7575 74.7017 78.4217 74.6173 78.1093C74.6094 78.079 74.5946 78.0514 74.5844 78.0219C74.6184 77.9837 74.6514 77.944 74.6839 77.9027C74.8125 77.7397 74.9317 77.571 75.0456 77.3974C75.2802 77.04 75.463 76.6939 75.4475 76.2537C75.4471 76.2416 75.4452 76.2295 75.4448 76.2174C75.5262 76.0657 75.547 75.8769 75.5723 75.7109C75.6053 75.4953 75.6446 75.282 75.6881 75.0683C75.7744 74.6477 75.8856 74.2332 75.9893 73.8167C76.1732 73.0769 76.3473 72.3303 76.2852 71.5682C76.4774 71.5848 76.6711 71.55 76.7903 71.3813C76.8929 71.2365 76.8698 71.0655 76.8369 70.9017C76.8081 70.7592 76.7786 70.6166 76.7491 70.474C76.8425 70.4592 76.9326 70.4127 77.003 70.3314C77.0892 70.2311 77.121 70.1056 77.1418 69.9777C77.1664 69.8264 77.2145 69.6861 77.2709 69.5439C77.3764 69.2773 77.4578 69.0144 77.6027 68.7644C77.6345 68.7099 77.6682 68.6558 77.7011 68.6017C77.717 68.6653 77.7355 68.7269 77.7548 68.7829C77.8623 69.0881 78.0435 69.3533 78.2119 69.6267C78.263 69.7099 78.3126 69.7943 78.3614 69.879C78.3334 70.0148 78.3065 70.1494 78.2789 70.2807C78.1476 70.9021 78.0227 71.5243 77.9096 72.1491C77.6829 73.4007 77.3927 74.6591 77.014 75.8739C76.8286 76.4681 76.6333 77.0642 76.4203 77.6489C76.3363 77.88 76.2353 78.1168 76.0124 78.2443C75.7907 78.371 75.5409 78.4315 75.3253 78.573C74.9257 78.8351 74.62 79.2394 74.4376 79.6796C74.349 79.8941 74.3154 80.1384 74.2518 80.3616C74.1841 80.5984 74.1239 80.8382 74.0656 81.0772C73.9218 81.6699 73.7955 82.3635 74.1466 82.9108C74.3717 83.2615 74.7448 83.5228 75.141 83.4653C75.2401 83.5538 75.3638 83.6268 75.4293 83.6601C75.7104 83.8042 76.0173 83.8803 76.3325 83.8969C76.5728 83.9094 76.821 83.8942 77.0597 83.8477C77.2187 83.9101 77.4188 83.9264 77.5505 83.9427C77.8555 83.9805 78.1635 83.979 78.4692 83.9491C78.7643 83.9203 79.0553 83.8534 79.3357 83.7577C79.4382 83.7225 79.5381 83.6828 79.6354 83.6374C80.1053 83.8958 80.7985 83.6673 81.2124 83.4086C81.8038 83.0387 82.1818 82.4558 82.4565 81.8284C83.0563 80.4577 83.3264 78.9527 83.7109 77.5135C83.8236 77.0922 83.9447 76.6727 84.0836 76.2593C84.1494 76.0627 84.2194 75.8675 84.2939 75.6738C84.3193 75.608 84.3465 75.5407 84.3708 75.4726C84.384 75.4912 84.3976 75.5101 84.4101 75.5282C84.5179 75.6856 84.6315 75.8372 84.7461 75.9893C84.8146 76.0801 84.9485 76.0328 84.9864 75.942C85.087 75.6988 85.0507 75.4424 85.003 75.1912C84.9693 75.0127 84.9345 74.8342 84.8997 74.656C84.9451 74.6859 84.9909 74.7154 85.0348 74.7483C85.0969 74.7945 85.2077 74.7767 85.2463 74.7071C85.3292 74.5581 85.3867 74.4079 85.4208 74.2513C85.4457 74.3258 85.4722 74.4 85.4915 74.4771C85.6069 74.9371 85.6304 75.4117 85.5558 75.8804C85.3875 76.9428 84.5123 77.8313 84.7098 78.9599C84.7582 79.2364 84.8899 79.4992 85.1006 79.6868C85.1975 79.7734 85.3269 79.8408 85.4605 79.8427C85.4665 79.8427 85.4718 79.8404 85.4779 79.8404C85.5672 80.1006 85.7499 80.326 85.9721 80.486C86.2619 80.6952 86.6217 80.7984 86.9732 80.8374C87.176 80.8601 87.3705 80.8559 87.5518 80.7584C87.573 80.747 87.6089 80.7345 87.6343 80.7179C87.6479 80.7088 87.6592 80.6982 87.671 80.6876C87.6835 80.6975 87.6948 80.7088 87.7077 80.7183C88.0989 81.0068 88.6385 81.1396 89.1088 81.2258C89.6495 81.3249 90.1425 81.244 90.6639 81.0927C90.9019 81.0239 91.1373 80.9467 91.3776 80.8835C91.6352 80.8155 91.908 80.7894 92.1729 80.7621C92.6886 80.7088 93.207 80.6827 93.7216 80.6218C94.2218 80.5624 94.7099 80.4565 95.1931 80.3162C95.6854 80.1732 96.1769 80.0246 96.6832 79.941C97.1527 79.8635 97.628 79.8294 98.1021 79.7973C98.6398 79.7606 99.1793 79.7277 99.7117 79.6399C99.9728 79.5972 100.228 79.5397 100.479 79.4561C100.629 79.4066 100.759 79.3313 100.883 79.2439C101.172 79.1566 101.458 79.059 101.745 78.9788C102.021 78.902 102.299 78.8362 102.58 78.7814C102.878 78.7227 103.194 78.7076 103.477 78.5972C103.71 78.506 103.59 78.1909 103.388 78.1607C103.31 78.149 103.226 78.0987 103.152 78.0737C103.078 78.0495 103.002 78.0298 102.927 78.0113C103.126 77.9398 103.33 77.8812 103.539 77.8396C103.729 77.8017 103.92 77.7753 104.113 77.7636C104.271 77.7541 104.45 77.739 104.609 77.7745C104.648 77.7896 104.689 77.8006 104.73 77.8067C104.923 77.8642 105.051 77.6123 104.934 77.4644C104.834 77.3377 104.662 77.2843 104.514 77.2287C104.379 77.1777 104.24 77.1349 104.099 77.1013C104.088 77.0986 104.077 77.0967 104.067 77.0945C104.183 77.0631 104.298 77.0336 104.41 77.0052C104.78 76.911 105.153 76.835 105.533 76.8032C106.296 76.7401 107.056 76.7359 107.819 76.7862C108.017 76.7991 108.15 76.4946 107.952 76.3932C107.932 76.383 107.911 76.3758 107.891 76.3656C108.308 76.3853 108.727 76.3917 109.143 76.3804C109.326 76.3754 109.506 76.3607 109.688 76.3463C109.708 76.3448 109.727 76.3441 109.747 76.3425C109.831 76.3354 109.915 76.3285 109.998 76.3198C110.15 76.3047 110.301 76.2888 110.453 76.2741C110.926 76.2283 111.4 76.1841 111.874 76.1398C112.841 76.0494 113.806 75.9227 114.771 75.807C116.677 75.5781 118.584 75.3486 120.49 75.1156C122.408 74.8815 124.325 74.6473 126.242 74.4132C126.723 74.3546 127.203 74.299 127.683 74.2377C128.144 74.1787 128.6 74.0811 129.06 74.0263C129.949 73.9204 130.872 74.1666 131.71 74.4374C132.601 74.7256 133.469 75.0876 134.401 75.2294C134.85 75.2979 135.306 75.3085 135.756 75.2446C135.987 75.2116 136.211 75.1542 136.439 75.1042C136.558 75.0781 136.678 75.0547 136.8 75.0418C136.863 75.0354 136.923 75.0206 136.983 75.0044C137.03 75.0229 137.079 75.0369 137.132 75.0604C137.268 75.1231 137.373 74.9552 137.325 74.8383Z" fill="#FFF4F0"/>
<path d="M51.4513 54.4377C50.4906 62.3722 52.3772 67.9733 52.3772 67.9733C52.7764 68.7933 53.0178 69.5139 53.1631 70.0744C53.3126 70.6504 53.3629 71.2492 53.271 71.8373C53.1306 72.7352 53.2025 73.7738 53.2025 73.7738C53.2025 73.7738 53.9505 75.5526 54.9044 77.0478C55.8587 78.5429 56.8644 79.1617 56.8644 79.1617C57.4577 79.136 58.7472 78.9556 58.7472 78.9556C60.3977 78.8266 60.3462 79.6772 60.3462 79.6772C61.3777 79.9866 61.9195 80.9919 61.9195 80.9919C62.1541 81.4882 62.1424 81.8864 62.0281 82.1947C61.8348 82.7151 61.3005 83.0295 60.7451 83.0185L54.6725 82.8993C53.1767 82.9508 53.151 81.3009 53.151 81.3009C53.151 81.3009 52.171 81.1205 51.3458 78.8005C50.5205 76.4804 49.0505 76.2482 49.0505 76.2482C47.632 77.0988 47.9158 74.4694 47.9158 74.4694C47.4001 73.6188 47.3486 71.84 47.3486 71.84C46.5491 70.8603 44.8471 64.4157 44.8471 64.4157C44.8471 64.4157 44.8471 64.4157 45.0791 66.117C45.311 67.8183 45.93 69.8293 45.9043 70.9893C45.8892 71.6705 45.7409 72.5204 45.6205 73.1059C45.518 73.607 45.5195 74.126 45.6387 74.6233C46.5442 78.4049 48.483 79.7797 48.483 79.7797L49.5144 79.5736C50.9008 79.6235 51.2701 81.4258 51.3583 82.6891C51.404 83.3449 50.8804 83.899 50.2227 83.8918L44.2788 83.8271C42.3445 83.5953 42.7055 82.4867 42.7055 82.4867C42.267 82.3063 42.035 79.4707 42.035 79.4707C42.1474 81.5771 40.4209 81.599 40.4209 81.599C39.859 82.891 36.9651 82.1887 36.9651 82.1887C34.802 82.3853 22.8952 81.8021 22.8952 81.8021L22.8868 81.818C22.6205 82.3157 22.0945 82.6195 21.5296 82.6013L16.7999 82.4477L7.36879 81.6391C6.81598 81.5918 6.33204 81.248 6.10539 80.7415L5.60858 81.3679C5.26274 79.2733 6.51593 78.6254 6.51593 78.6254L5.93247 78.4956C6.6022 77.6318 6.32144 76.0984 6.32144 76.0984L5.86777 76.7032C5.63015 75.8825 5.93247 74.8892 5.93247 74.8892L5.30588 75.3858C5.15452 73.5503 6.11334 72.4621 6.11334 72.4621C6.23479 72.0253 6.19204 71.3225 6.09744 70.6361C5.83523 68.7385 6.10728 66.8069 6.84133 65.0375C7.41723 63.6494 8.28031 61.7386 9.57209 59.1179C13.6983 50.747 20.6169 45.8186 20.6169 45.8186C21.0672 45.4503 24.7507 41.6865 24.7507 41.6865C26.5514 38.5771 30.2936 36.605 30.2936 36.605C30.4446 36.3539 30.588 36.0929 30.6564 35.8077C30.7499 35.4189 30.6977 35.0081 30.7688 34.6148C30.8441 34.1968 31.1094 33.7418 31.4249 33.4574C31.1377 33.516 30.7684 33.4521 30.5055 33.3224C30.9508 32.6696 31.4128 31.9997 32.0708 31.5617C32.5377 31.2512 33.0792 31.0738 33.5734 30.809C34.2718 30.435 34.9817 29.8506 35.4145 29.1872C35.1308 29.1218 34.8621 28.9603 34.6926 28.7239C35.4615 28.2008 36.1626 27.5408 36.6129 26.7272C36.1675 26.2075 35.9723 25.5036 35.9848 24.8194C35.9972 24.1352 36.1883 23.577 36.468 22.9517C36.1138 22.0588 36.3688 21.0508 36.6605 20.1358C36.8883 19.4214 37.3117 18.7542 37.5811 18.0541C37.0537 17.7995 36.6216 17.3532 36.3843 16.818C36.272 16.565 36.2027 16.2957 36.1342 16.0275C35.9991 15.5014 35.8826 15.0124 35.7475 14.4862C35.1992 14.0887 34.8421 13.4658 34.6703 12.8107C34.4985 12.1556 34.5004 11.4097 34.5621 10.7354C33.9404 9.55227 34.1493 8.12824 34.0376 6.7965C33.9608 5.88043 33.7255 4.98404 33.6256 4.07024C33.5261 3.15644 33.4549 2.09816 33.9056 1.29669C34.9404 1.23504 35.8924 1.8421 36.6893 2.50514C38.0204 3.61296 38.8211 5.20794 40.0482 6.43C40.4765 6.85626 41.2609 7.75077 41.5927 8.2557C41.5927 8.2557 42.8606 7.91 43.9943 8.87032C43.9943 8.87032 45.7617 8.06394 46.9528 8.35177C46.9528 8.35177 46.9335 7.31468 47.5484 6.46972C47.5484 6.46972 48.1053 5.89367 48.2976 4.79908C48.4898 3.70448 49.892 0.440005 51.1218 0.420715C51.1218 0.420715 52.0057 0.497492 52.4472 2.70596C52.4472 2.70596 53.5808 5.47119 52.8506 8.06395L52.8888 9.79245L52.4855 10.522L53.523 11.0406L53.5616 12.1545C53.9819 12.1481 54.4727 12.1522 54.8927 12.1689C55.4784 12.1923 56.0876 12.2453 56.592 12.5444L58.0832 12.5437C58.0832 12.5437 59.3076 12.7778 59.6058 13.5762C59.9039 14.3747 59.3504 14.5449 59.3504 14.5449C59.3504 14.5449 59.6338 15.1773 59.1566 15.818L59.112 17.8003C59.112 17.8003 59.0821 18.8733 57.8149 19.1267C57.7233 19.4664 57.4638 19.7425 57.1921 19.9664C57.0752 20.0625 56.9454 20.1434 56.8379 20.2497C56.6828 20.4029 56.581 20.6011 56.4823 20.7955L56.2802 21.1926C56.0819 21.5822 55.7403 21.8851 55.3237 22.0164C54.904 22.1488 54.4587 22.1688 54.0315 22.2706C53.6244 22.3678 53.2123 22.5591 52.9902 22.9139C53.582 24.136 54.089 25.886 53.9619 27.5506C53.6554 27.4334 53.3618 27.3123 53.0795 27.1448C53.6001 27.9073 53.9055 28.8998 53.9286 29.823C53.9517 30.7459 53.7526 31.6657 53.4284 32.5304C53.1155 32.3968 52.8354 32.2149 52.622 31.9502C52.798 32.9146 53.3587 33.9249 53.8158 34.7922C54.2733 35.6594 54.6626 36.6319 54.495 37.5979C54.0569 37.4954 53.6569 37.2624 53.3864 36.9027C53.285 37.4538 53.3989 38.1383 53.7209 38.5968C54.0001 38.9943 54.4057 39.2829 54.7349 39.6399C55.6161 40.5957 56.0929 41.6252 55.7459 43.4074C55.4319 43.1703 55.1163 42.9502 54.8473 42.6627C55.1901 43.8439 55.3044 45.3167 55.0614 46.5221C54.8185 47.7279 54.3247 48.8755 53.6815 49.9236C53.5271 49.6459 53.3773 49.4466 53.2229 49.169C53.1945 49.8725 52.9531 50.5537 52.5997 51.1675C52.0178 52.1793 51.5917 53.2781 51.4513 54.4377Z" fill="#FFF4F0"/>
</svg>
