<svg width="170" height="136" viewBox="0 0 170 136" fill="none" xmlns="http://www.w3.org/2000/svg">
<path d="M91.3646 104.341C82.7303 104.553 72.2361 105.1 61.5672 104.991C44.2809 104.823 26.5396 102.946 15.5348 95.1893C9.81105 91.1528 7.28801 85.3695 5.89748 79.725C1.44863 61.6567 7.27119 42.5519 21.0271 27.0731C24.8291 22.7908 29.2394 18.7849 34.2067 15.1572C36.1945 13.7058 38.268 12.314 40.4313 10.9886C42.2751 9.86034 44.1996 8.77262 46.2022 7.75256C49.4402 6.09912 52.8697 4.61568 56.4395 3.40228C63.8159 0.889445 71.7837 -0.478804 79.8721 0.153413C96.4899 1.45372 108.035 10.2056 116.78 19.8501C119.517 22.8689 121.982 25.9749 124.24 28.968C125.946 31.2295 127.548 33.5309 129.045 35.8682C132.3 40.9437 135.059 46.179 137.311 51.524C140.562 59.2281 142.763 67.1577 143.907 75.1569C144.513 79.3943 144.664 84.1173 143.178 88.3658C141.77 92.4052 138.879 96.0142 133.495 98.367C121.076 103.794 105.481 103.991 91.3646 104.341Z" fill="#FB9354" fill-opacity="0.77"/>
<path d="M126.983 54.8824C104.175 60.0314 77.0825 53.0245 64.2593 38.6623C57.2682 30.8322 54.4519 21.5411 49.5756 12.9388C48.5862 11.1938 47.466 9.44905 46.2026 7.75245C49.4406 6.099 52.8702 4.61556 56.44 3.40216C59.9286 7.12431 62.9816 11.0704 66.7004 14.6841C75.9418 23.6634 89.3511 30.4376 104.319 33.6842C112.303 35.4172 120.705 36.1433 129.045 35.8675C132.3 40.943 135.059 46.1783 137.312 51.5233C134.115 52.963 130.594 54.0685 126.983 54.8824Z" fill="#FFF4F0"/>
<path d="M97.1139 100.95C88.4795 101.162 85.342 100.333 74.3851 98.367C60.8069 92.9235 38.8354 88.1078 33.528 77.1702C27.445 64.6314 27.3773 51.0834 24.4547 37.9841C23.6405 34.3471 22.5343 30.6591 21.0276 27.0731C24.8296 22.7908 29.2399 18.7849 34.2073 15.1572C37.3558 19.5731 39.6012 24.4273 41.2481 29.1972C45.0579 40.2284 46.7856 51.8605 54.4515 61.8282C61.1568 70.5501 72.3048 77.4995 85.342 81.0852C97.9388 84.5504 111.723 84.8796 125.143 85.9796C131.178 86.4739 137.315 87.1752 143.178 88.3659C141.77 92.4053 138.88 96.0143 133.495 98.367C121.076 103.794 111.23 100.6 97.1139 100.95Z" fill="#FFF4F0"/>
<path d="M97.2075 76.4473C94.522 77.0302 91.6807 75.955 90.8611 74.0458C90.0416 72.1369 91.5535 70.1166 94.239 69.534C96.9244 68.9514 99.7658 70.0262 100.585 71.9354C101.405 73.8443 99.8925 75.8643 97.2075 76.4473Z" fill="#FFF4F0"/>
<ellipse cx="67.8519" cy="124.295" rx="67.7797" ry="11.7049" fill="#FFF4F0"/>
<path d="M169.913 118.485C169.871 118.383 169.872 118.301 169.81 118.205C169.762 118.132 169.703 118.062 169.648 117.994C169.513 117.826 169.376 117.661 169.251 117.485C169.022 117.165 168.817 116.834 168.569 116.528C168.111 115.965 167.625 115.445 167.047 115.002C166.221 114.369 165.283 113.898 164.301 113.555C163.892 113.365 163.475 113.191 163.047 113.048C162.233 112.776 161.401 112.594 160.555 112.494C160.704 112.446 160.855 112.403 161.011 112.376C161.225 112.339 161.181 112.042 160.985 112.014C160.32 111.918 159.659 111.817 158.992 111.75C159.01 111.585 158.823 111.462 158.668 111.479C157.633 111.592 156.593 111.665 155.554 111.75C151.796 111.873 148.04 112.078 144.29 112.374C142.306 112.531 140.326 112.737 138.346 112.94C137.37 113.039 136.394 113.17 135.414 113.217C134.437 113.264 133.452 113.246 132.475 113.181C131.399 113.109 130.345 112.892 129.31 112.596C128.791 112.447 128.277 112.28 127.766 112.109C127.544 112.035 127.323 111.959 127.103 111.882C127.103 111.881 127.103 111.881 127.104 111.88C127.313 111.312 127.514 110.736 127.648 110.145C127.776 109.574 127.894 108.999 127.957 108.417C127.973 108.275 127.985 108.133 127.994 107.99C128.01 108.048 128.026 108.107 128.039 108.166C128.092 108.424 128.449 108.379 128.483 108.134C128.754 106.201 128.239 104.25 127.833 102.374C127.411 100.427 127.099 98.4462 126.788 96.4786C126.632 95.4911 126.481 94.5027 126.343 93.5124C126.209 92.553 126.066 91.5992 125.838 90.6571C125.438 89.0053 124.832 87.4092 124.137 85.8608C123.755 85.0081 123.302 84.1937 122.786 83.4134C122.528 83.0209 122.253 82.6369 121.955 82.2734C122.159 82.3618 122.393 82.105 122.286 81.8987C122.049 81.4417 121.758 81.0071 121.482 80.573C121.205 80.138 120.921 79.7067 120.618 79.2885C120.027 78.4698 119.378 77.6971 118.65 76.9959C117.903 76.2764 117.095 75.6224 116.271 74.9933C115.473 74.3842 114.674 73.7756 113.858 73.1899C113.398 72.8592 112.924 72.5346 112.418 72.2773C112.058 72.0939 111.63 71.8647 111.205 71.8142C111.163 71.3979 111.101 70.9839 111.063 70.5671C111.019 70.0829 111.073 69.6235 111.126 69.1436C111.18 68.6562 111.111 68.1832 110.968 67.7169C110.897 67.4853 110.796 67.2664 110.723 67.0358C110.647 66.7976 110.619 66.5455 110.596 66.2971C110.573 66.0427 110.57 65.79 110.581 65.5346C110.593 65.2671 110.648 65.0102 110.675 64.7445C110.723 64.2688 110.692 63.8043 110.871 63.3538C110.941 63.1775 111.007 62.9847 110.99 62.792C110.974 62.603 110.883 62.4515 110.793 62.2891C110.704 62.1268 110.628 62.0155 110.706 61.8344C110.811 61.5903 110.919 61.3826 110.962 61.1155C111.032 60.6842 110.993 60.208 110.807 59.8071C110.916 59.6611 111.025 59.5147 111.14 59.3716C111.311 59.1564 111.416 58.9239 111.418 58.6451C111.42 58.3611 111.383 58.0725 111.361 57.79C111.338 57.4892 111.315 57.1884 111.291 56.8876C111.281 56.7609 111.274 56.5901 111.235 56.4385C111.441 56.1738 111.615 55.8837 111.736 55.5694C111.979 54.9416 112.105 54.2484 112.25 53.5925C112.354 53.1182 112.491 52.4712 112.338 51.96C112.338 51.9586 112.339 51.9576 112.339 51.9562C112.938 50.5533 113.295 49.0251 113.24 47.494C113.214 46.7395 113.1 45.9873 112.862 45.2697C112.649 44.6302 112.357 43.734 111.532 43.7564C111.138 43.7672 110.783 43.9487 110.435 44.1161C110.074 44.2902 109.713 44.466 109.355 44.6471C108.628 45.0147 107.912 45.4058 107.231 45.853C106.531 46.3119 105.855 46.8213 105.269 47.4215C104.993 47.704 104.715 48.0109 104.472 48.3416C104.415 48.2771 104.353 48.2233 104.281 48.1957C103.813 48.0165 103.463 48.5938 103.208 48.8759C102.889 49.2286 102.296 49.1069 101.873 49.0812C101.635 49.0667 101.402 49.0443 101.173 48.9727C100.979 48.9119 100.778 48.8146 100.575 48.7739C100.268 48.3945 99.7337 48.1391 99.2489 48.2991C99.145 48.3332 99.2442 48.3257 99.1708 48.285C99.1123 48.2523 99.0739 48.2139 99.0079 48.1882C98.8834 48.1405 98.751 48.1452 98.6251 48.1803C98.4828 48.2191 98.3672 48.2944 98.2465 48.3758C98.1941 48.4113 98.1417 48.4469 98.0836 48.4736C98.0621 48.4834 98.02 48.4918 98.0078 48.5049C97.9812 48.4539 97.9372 48.3515 97.9283 48.3384C97.8909 48.2865 97.8525 48.2411 97.8001 48.2022C97.6817 48.1148 97.5366 48.0797 97.3911 48.1007C97.2497 48.1213 97.1365 48.1976 97.0068 48.2486C96.9367 48.2766 96.8725 48.2804 96.807 48.2813C96.6919 48.1658 96.5796 48.0469 96.4795 47.9183C96.3601 47.7649 96.2572 47.6025 96.165 47.4318C96.0578 47.2335 95.9516 47.0407 95.7705 46.899C95.6193 46.7806 95.4335 46.7273 95.2702 46.6305C95.1757 46.5748 95.1111 46.493 95.0531 46.4055C94.7508 45.6739 94.3113 45.0003 93.8714 44.3454C93.2865 43.4753 92.6566 42.6361 91.978 41.8366C91.6481 41.4479 91.3074 41.0681 90.956 40.6985C90.6387 40.3645 90.3078 40.0174 89.9007 39.7919C89.4575 39.5463 88.9601 39.4607 88.4771 39.6408C88.3784 39.6778 88.2843 39.7278 88.1996 39.7877C88.106 39.7882 88.0087 39.8251 87.9516 39.8967C87.8047 40.0805 87.7593 40.3121 87.691 40.5329C87.6179 40.7687 87.5487 41.0054 87.4785 41.2416L87.0817 42.5818C86.8205 43.4631 86.4653 44.3715 86.4003 45.295C86.3685 45.7431 86.4274 46.1912 86.47 46.6366C86.5145 47.1006 86.5042 47.5604 86.4611 48.024C86.3769 48.9315 86.2356 49.8227 86.338 50.7353C86.3469 50.8134 86.3596 50.8906 86.3713 50.9678C86.3296 51.0772 86.3128 51.2101 86.2992 51.2849C86.2529 51.5399 86.2351 51.8028 86.2023 52.0601C86.1401 52.5475 86.054 53.0363 85.7914 53.4616C85.6614 53.6721 85.4714 53.8419 85.3511 54.0575C85.2004 54.3274 85.1878 54.6151 85.3459 54.8855C85.3562 54.9033 85.3661 54.9215 85.3764 54.9388C85.36 54.9884 85.3436 55.0375 85.331 55.0885C85.3001 55.2153 85.2828 55.3444 85.2495 55.4707C85.1826 55.7242 85.1026 55.9764 85.0198 56.2252C84.8518 56.7272 84.6622 57.2207 84.5134 57.7287C84.2116 58.7569 84.0075 59.8169 83.9046 60.8834C83.6987 63.017 83.9411 65.1412 84.4746 67.2112C84.5686 67.5756 84.6711 67.9377 84.7797 68.2978C84.6716 68.9069 84.5471 69.5197 84.3782 70.1147C84.2008 70.7397 83.9748 71.3501 83.7694 71.9667C83.3594 73.1974 82.9888 74.4305 82.8269 75.7225C82.664 77.0234 82.7131 78.3276 82.9387 79.6173C83.0534 80.2727 83.1961 80.9234 83.3014 81.5806C83.4029 82.2159 83.5461 82.8492 83.6159 83.4896C83.7801 84.994 83.753 86.5139 83.9294 88.0159C83.9392 88.1001 84.0202 88.1881 84.1007 88.2105C84.3595 88.2821 84.6159 88.3074 84.8691 88.3701C84.608 88.7513 84.4694 89.2097 84.3501 89.6518C84.177 90.2917 84.3262 90.9298 84.4643 91.5599C84.6028 92.1928 84.724 92.8486 84.9561 93.4554C85.1078 93.8511 85.418 94.1954 85.8163 94.2885C85.659 94.6926 85.5757 95.1183 85.5809 95.559C85.5832 95.733 85.711 95.834 85.8794 95.8177C86.148 95.7915 86.4157 95.7611 86.6839 95.7316C86.6043 95.8911 86.5299 96.052 86.4728 96.2302C86.3802 96.5207 86.3137 96.8197 86.2688 97.1209C86.2276 97.3979 86.2089 97.6785 86.2262 97.9545C86.2065 98.18 86.208 98.4041 86.2225 98.637C86.2636 99.3111 86.3399 99.9852 86.419 100.656C86.58 102.016 86.7648 103.374 86.9268 104.735C86.9403 104.848 87.0662 104.936 87.1823 104.934C87.1533 105.35 87.1481 105.769 87.1238 106.186C87.0891 106.783 87.0292 107.379 86.9661 107.974C86.8402 109.157 86.6768 110.345 86.689 111.537C86.6951 112.153 86.7396 112.77 86.8289 113.38C86.9141 113.959 87.1167 114.525 87.1673 115.108C87.2019 115.503 87.1561 115.872 87.0728 116.239C87.0007 116.421 86.931 116.603 86.8533 116.782C86.6151 117.33 86.346 117.859 86.0549 118.38C85.769 118.892 85.4854 119.403 85.1892 119.91C85.1143 120.037 85.0399 120.165 84.9655 120.294C84.4077 120.149 83.6954 120.425 83.2527 120.698C82.5718 121.117 82.057 121.736 81.6186 122.396C81.1988 123.026 80.735 123.709 80.589 124.464C80.4458 125.203 80.742 125.909 81.4206 126.261C82.101 126.614 82.9069 126.651 83.6556 126.73C84.5682 126.827 85.4831 126.901 86.3993 126.951C87.3063 127.001 88.2399 127.079 89.1473 127.021C89.5408 126.996 89.9218 126.914 90.2531 126.692C90.5582 126.488 90.8175 126.194 91.0631 125.922C91.6411 125.283 92.1779 124.589 92.3337 123.72C92.4029 123.332 92.4619 122.917 92.3576 122.531C92.3477 122.493 92.3295 122.459 92.3168 122.422C92.359 122.375 92.3997 122.326 92.4399 122.275C92.599 122.074 92.7464 121.865 92.8873 121.65C93.1774 121.208 93.4035 120.78 93.3843 120.236C93.3838 120.221 93.3815 120.206 93.381 120.191C93.4816 120.003 93.5074 119.77 93.5387 119.564C93.5794 119.298 93.6281 119.034 93.6819 118.77C93.7886 118.249 93.9262 117.737 94.0544 117.222C94.2819 116.307 94.4971 115.383 94.4204 114.441C94.6581 114.461 94.8977 114.418 95.0451 114.21C95.1719 114.03 95.1434 113.819 95.1027 113.616C95.0671 113.44 95.0306 113.264 94.9941 113.087C95.1097 113.069 95.2211 113.012 95.3081 112.911C95.4148 112.787 95.4541 112.632 95.4799 112.474C95.5103 112.287 95.5697 112.113 95.6394 111.937C95.77 111.607 95.8706 111.282 96.0499 110.973C96.0892 110.906 96.1308 110.839 96.1715 110.772C96.1912 110.85 96.2141 110.927 96.238 110.996C96.3709 111.373 96.595 111.701 96.8033 112.04C96.8665 112.142 96.9278 112.247 96.9881 112.352C96.9535 112.519 96.9203 112.686 96.8861 112.848C96.7237 113.617 96.5693 114.386 96.4294 115.159C96.1491 116.707 95.7901 118.263 95.3217 119.766C95.0924 120.501 94.8509 121.238 94.5874 121.961C94.4836 122.247 94.3586 122.54 94.083 122.698C93.8087 122.854 93.4999 122.929 93.2331 123.104C92.739 123.428 92.3608 123.928 92.1353 124.473C92.0258 124.738 91.9841 125.04 91.9055 125.316C91.8217 125.609 91.7473 125.906 91.6752 126.201C91.4974 126.934 91.3411 127.792 91.7754 128.469C92.0538 128.903 92.5153 129.226 93.0052 129.155C93.1278 129.264 93.2809 129.355 93.3618 129.396C93.7095 129.574 94.0891 129.668 94.4789 129.689C94.776 129.704 95.083 129.685 95.3783 129.628C95.5749 129.705 95.8224 129.725 95.9853 129.745C96.3625 129.792 96.7434 129.79 97.1215 129.753C97.4865 129.718 97.8464 129.635 98.1932 129.516C98.32 129.473 98.4435 129.424 98.5638 129.368C99.145 129.687 100.002 129.405 100.514 129.085C101.246 128.627 101.713 127.906 102.053 127.13C102.795 125.435 103.129 123.574 103.604 121.794C103.744 121.273 103.894 120.754 104.065 120.243C104.147 119.999 104.233 119.758 104.325 119.518C104.357 119.437 104.391 119.354 104.42 119.27C104.437 119.293 104.454 119.316 104.469 119.338C104.602 119.533 104.743 119.721 104.885 119.909C104.969 120.021 105.135 119.962 105.182 119.85C105.306 119.549 105.261 119.232 105.202 118.922C105.161 118.701 105.118 118.48 105.075 118.26C105.131 118.297 105.187 118.333 105.242 118.374C105.318 118.431 105.456 118.409 105.503 118.323C105.606 118.139 105.677 117.953 105.719 117.759C105.75 117.851 105.783 117.943 105.807 118.038C105.949 118.607 105.978 119.194 105.886 119.774C105.678 121.088 104.595 122.187 104.84 123.583C104.9 123.925 105.063 124.25 105.323 124.482C105.443 124.589 105.603 124.672 105.768 124.674C105.776 124.674 105.782 124.672 105.79 124.672C105.9 124.993 106.126 125.272 106.401 125.47C106.759 125.729 107.204 125.857 107.639 125.905C107.89 125.933 108.131 125.928 108.355 125.807C108.381 125.793 108.425 125.777 108.457 125.757C108.474 125.746 108.488 125.733 108.502 125.719C108.518 125.732 108.532 125.746 108.547 125.757C109.031 126.114 109.699 126.278 110.28 126.385C110.949 126.508 111.559 126.408 112.204 126.22C112.498 126.135 112.789 126.04 113.086 125.962C113.405 125.878 113.742 125.845 114.07 125.812C114.708 125.746 115.349 125.713 115.985 125.638C116.604 125.565 117.208 125.434 117.805 125.26C118.414 125.083 119.022 124.899 119.648 124.796C120.229 124.7 120.817 124.658 121.403 124.618C122.068 124.573 122.735 124.532 123.394 124.424C123.717 124.371 124.033 124.3 124.343 124.196C124.528 124.135 124.69 124.042 124.843 123.934C125.2 123.826 125.554 123.705 125.909 123.606C126.25 123.511 126.594 123.43 126.941 123.362C127.309 123.289 127.7 123.271 128.05 123.134C128.338 123.021 128.191 122.632 127.94 122.594C127.844 122.58 127.741 122.517 127.648 122.487C127.557 122.457 127.464 122.432 127.37 122.409C127.617 122.321 127.869 122.248 128.128 122.197C128.362 122.15 128.599 122.118 128.837 122.103C129.033 122.091 129.254 122.073 129.451 122.117C129.499 122.135 129.549 122.149 129.601 122.156C129.84 122.227 129.997 121.916 129.853 121.733C129.729 121.576 129.516 121.51 129.334 121.442C129.166 121.378 128.995 121.326 128.82 121.284C128.807 121.281 128.793 121.278 128.781 121.275C128.923 121.237 129.066 121.2 129.205 121.165C129.662 121.049 130.123 120.955 130.594 120.915C131.537 120.837 132.477 120.832 133.421 120.894C133.666 120.91 133.831 120.534 133.586 120.408C133.561 120.396 133.535 120.387 133.51 120.374C134.026 120.398 134.544 120.406 135.058 120.392C135.284 120.386 135.508 120.368 135.732 120.35C135.757 120.348 135.781 120.347 135.806 120.346C135.909 120.337 136.013 120.328 136.116 120.317C136.303 120.299 136.491 120.279 136.679 120.261C137.264 120.204 137.85 120.15 138.436 120.095C139.632 119.983 140.826 119.826 142.019 119.683C144.377 119.4 146.735 119.116 149.093 118.828C151.464 118.538 153.835 118.249 156.206 117.959C156.8 117.887 157.395 117.818 157.989 117.742C158.558 117.669 159.122 117.549 159.692 117.481C160.791 117.35 161.933 117.654 162.969 117.989C164.071 118.346 165.144 118.793 166.297 118.969C166.852 119.054 167.416 119.067 167.973 118.988C168.258 118.947 168.536 118.876 168.817 118.814C168.965 118.782 169.113 118.753 169.264 118.737C169.342 118.729 169.417 118.711 169.49 118.691C169.549 118.713 169.609 118.731 169.675 118.76C169.843 118.837 169.973 118.63 169.913 118.485Z" fill="#272525"/>
<path d="M63.7063 93.254C62.5181 103.067 64.8514 109.995 64.8514 109.995C65.3451 111.009 65.6437 111.9 65.8234 112.593C66.0082 113.306 66.0705 114.046 65.9567 114.774C65.7831 115.884 65.872 117.169 65.872 117.169C65.872 117.169 66.7972 119.369 67.977 121.218C69.1572 123.067 70.4011 123.832 70.4011 123.832C71.1348 123.8 72.7297 123.577 72.7297 123.577C74.771 123.418 74.7073 124.47 74.7073 124.47C75.983 124.852 76.6532 126.096 76.6532 126.096C76.9433 126.71 76.9288 127.202 76.7875 127.583C76.5483 128.227 75.8876 128.616 75.2006 128.602L67.6901 128.455C65.8402 128.518 65.8084 126.478 65.8084 126.478C65.8084 126.478 64.5964 126.255 63.5757 123.385C62.5551 120.516 60.737 120.229 60.737 120.229C58.9826 121.281 59.3336 118.029 59.3336 118.029C58.6957 116.977 58.6321 114.777 58.6321 114.777C57.6432 113.565 55.5383 105.595 55.5383 105.595C55.5383 105.595 55.5383 105.595 55.8252 107.699C56.112 109.803 56.8776 112.29 56.8458 113.725C56.8271 114.567 56.6436 115.618 56.4948 116.342C56.368 116.962 56.3699 117.604 56.5173 118.219C57.6372 122.896 60.035 124.597 60.035 124.597L61.3107 124.342C63.0254 124.403 63.4821 126.632 63.5911 128.195C63.6478 129.006 63.0001 129.691 62.1868 129.682L54.8354 129.602C52.4431 129.316 52.8896 127.945 52.8896 127.945C52.3472 127.721 52.0603 124.214 52.0603 124.214C52.1993 126.819 50.064 126.847 50.064 126.847C49.369 128.445 45.79 127.576 45.79 127.576C43.1146 127.819 28.3885 127.098 28.3885 127.098L28.3782 127.117C28.0487 127.733 27.3982 128.109 26.6996 128.086L20.8499 127.896L9.18574 126.896C8.50203 126.838 7.9035 126.413 7.62318 125.786L7.00874 126.561C6.58101 123.97 8.13093 123.169 8.13093 123.169L7.40932 123.008C8.23763 121.94 7.89039 120.044 7.89039 120.044L7.3293 120.792C7.03541 119.777 7.40932 118.548 7.40932 118.548L6.63436 119.162C6.44717 116.892 7.63301 115.546 7.63301 115.546C7.78323 115.006 7.73035 114.137 7.61336 113.288C7.28905 110.941 7.62552 108.552 8.53339 106.364C9.24564 104.647 10.3131 102.284 11.9107 99.0424C17.014 88.6894 25.5708 82.5941 25.5708 82.5941C26.1277 82.1385 30.6834 77.4835 30.6834 77.4835C32.9105 73.6379 37.5387 71.1989 37.5387 71.1989C37.7254 70.8882 37.9028 70.5655 37.9875 70.2128C38.1031 69.7319 38.0385 69.2239 38.1265 68.7374C38.2196 68.2205 38.5477 67.6577 38.938 67.3059C38.5828 67.3785 38.126 67.2994 37.8008 67.1389C38.3516 66.3316 38.923 65.5031 39.7368 64.9614C40.3143 64.5774 40.9839 64.358 41.5951 64.0305C42.459 63.5679 43.3369 62.8451 43.8722 62.0246C43.5213 61.9437 43.189 61.744 42.9794 61.4516C43.9303 60.8047 44.7974 59.9884 45.3543 58.9822C44.8035 58.3394 44.562 57.4689 44.5775 56.6227C44.5929 55.7764 44.8292 55.086 45.1751 54.3127C44.7371 53.2083 45.0525 51.9616 45.4133 50.8301C45.695 49.9464 46.2186 49.1212 46.5518 48.2554C45.8995 47.9406 45.3651 47.3886 45.0717 46.7267C44.9327 46.4137 44.847 46.0806 44.7623 45.749C44.5953 45.0983 44.4511 44.4934 44.2841 43.8427C43.606 43.3511 43.1642 42.5807 42.9517 41.7705C42.7393 40.9603 42.7416 40.0378 42.8179 39.2037C42.049 37.7405 42.3073 35.9793 42.1693 34.3322C42.0743 33.1992 41.7832 32.0906 41.6597 30.9604C41.5366 29.8302 41.4486 28.5214 42.006 27.5301C43.2859 27.4539 44.4633 28.2047 45.4488 29.0247C47.0952 30.3949 48.0854 32.3675 49.603 33.8789C50.1328 34.4061 51.1029 35.5124 51.5133 36.1369C51.5133 36.1369 53.0815 35.7094 54.4835 36.8971C54.4835 36.8971 56.6694 35.8998 58.1426 36.2557C58.1426 36.2557 58.1187 34.9731 58.8791 33.928C58.8791 33.928 59.568 33.2156 59.8057 31.8618C60.0435 30.5081 61.7778 26.4706 63.2987 26.4467C63.2987 26.4467 64.3918 26.5417 64.938 29.2731C64.938 29.2731 66.34 32.6931 65.4368 35.8998L65.4841 38.0375L64.9852 38.9399L66.2684 39.5812L66.3161 40.9589C66.8361 40.9509 67.443 40.9561 67.9625 40.9766C68.6869 41.0056 69.4403 41.0711 70.0641 41.4412L71.9084 41.4402C71.9084 41.4402 73.4228 41.7298 73.7915 42.7173C74.1603 43.7048 73.4756 43.9153 73.4756 43.9153C73.4756 43.9153 73.8261 44.6974 73.236 45.4898L73.1808 47.9415C73.1808 47.9415 73.1438 49.2686 71.5766 49.582C71.4634 50.0021 71.1423 50.3436 70.8063 50.6205C70.6617 50.7393 70.5012 50.8394 70.3683 50.9709C70.1764 51.1603 70.0506 51.4054 69.9284 51.6459L69.6785 52.1371C69.4333 52.6189 69.0107 52.9936 68.4955 53.1559C67.9765 53.3196 67.4257 53.3444 66.8974 53.4703C66.3938 53.5905 65.8842 53.8272 65.6095 54.266C66.3414 55.7774 66.9685 57.9418 66.8113 60.0005C66.4322 59.8555 66.0691 59.7058 65.7199 59.4986C66.3639 60.4417 66.7415 61.6691 66.7701 62.811C66.7986 63.9524 66.5525 65.09 66.1514 66.1594C65.7644 65.9943 65.4181 65.7693 65.1542 65.4418C65.3718 66.6347 66.0653 67.8841 66.6306 68.9568C67.1964 70.0294 67.6779 71.2321 67.4706 72.4268C66.9287 72.3 66.4341 72.0119 66.0995 71.567C65.9741 72.2486 66.1149 73.0952 66.5132 73.6622C66.8585 74.1538 67.3602 74.5108 67.7673 74.9524C68.8572 76.1345 69.4469 77.4078 69.0177 79.612C68.6293 79.3187 68.239 79.0464 67.9063 78.6909C68.3303 80.1518 68.4716 81.9734 68.1712 83.4642C67.8708 84.9555 67.26 86.3748 66.4645 87.671C66.2736 87.3276 66.0882 87.0811 65.8973 86.7378C65.8622 87.6078 65.5637 88.4503 65.1266 89.2095C64.4068 90.4609 63.8799 91.8198 63.7063 93.254Z" fill="#272525"/>
</svg>
